<svg xmlns="http://www.w3.org/2000/svg" version="1.1" xmlns:xlink="http://www.w3.org/1999/xlink" xmlns:svgjs="http://svgjs.dev/svgjs" width="2000" height="1500" viewBox="0 0 2000 1500"><rect width="2000" height="1500" fill="#000000"></rect><g transform="matrix(0.75,0,0,0.75,249.090909090909,282.7536437246963)"><svg viewBox="0 0 396 247" data-background-color="#191552" preserveAspectRatio="xMidYMid meet" height="1247" width="2000" xmlns="http://www.w3.org/2000/svg" xmlns:xlink="http://www.w3.org/1999/xlink"><g id="tight-bounds" transform="matrix(1,0,0,1,0.2400000000000091,-0.09999999999999432)"><svg viewBox="0 0 395.52 247.2" height="247.2" width="395.52"><g><svg></svg></g><g><svg viewBox="0 0 395.52 247.2" height="247.2" width="395.52"><g><path d="M55.039 247.2l26.403-45.732 4.583 0-23.987 41.546h271.444l-23.987-41.546 4.583 0 26.403 45.732zM197.76 0l26.403 45.732-4.582 0-21.821-37.795-21.821 37.795-4.582 0z" fill="#ffffff" fill-rule="nonzero" stroke="none" stroke-width="1" stroke-linecap="butt" stroke-linejoin="miter" stroke-miterlimit="10" stroke-dasharray="" stroke-dashoffset="0" font-family="none" font-weight="none" font-size="none" text-anchor="none" style="mix-blend-mode: normal" data-fill-palette-color="tertiary"></path></g><g transform="matrix(1,0,0,1,73.5275933395591,67.97999999999999)"><svg viewBox="0 0 248.46481332088177 111.24" height="111.24" width="248.46481332088177"><g><svg viewBox="0 0 395.52 177.07797016384328" height="111.24" width="248.46481332088177"><g transform="matrix(1,0,0,1,0,91.06499999081365)"><svg viewBox="0 0 395.52 86.01297017302963" height="86.01297017302963" width="395.52"><g id="textblocktransform"><svg viewBox="0 0 395.52 86.01297017302963" height="86.01297017302963" width="395.52" id="textblock"><g><svg viewBox="0 0 395.52 86.01297017302963" height="86.01297017302963" width="395.52"><g transform="matrix(1,0,0,1,0,0)"><svg width="395.52" viewBox="0.8692399999999996 -21.68421 225.47326 49.033240000000006" height="86.01297017302963" data-palette-color="url(#ea6fb6f4-5de0-43a7-8f31-890afba353d9)"></svg></g></svg></g></svg></g></svg></g><g transform="matrix(1,0,0,1,172.8082193185449,0)"><svg viewBox="0 0 49.90356136291018 86.01297017302963" height="86.01297017302963" width="49.90356136291018"><g><svg xmlns="http://www.w3.org/2000/svg" xmlns:xlink="http://www.w3.org/1999/xlink" version="1.1" x="0" y="0" viewBox="21.679106830508623 1 56.85827385947761 98" enable-background="new 0 0 100 100" xml:space="preserve" height="86.01297017302963" width="49.90356136291018" class="icon-icon-0" data-fill-palette-color="accent" id="icon-0"></svg></g></svg></g><g></g></svg></g></svg></g></svg></g><defs></defs><mask id="372e8b9f-a24f-4654-992c-b3093f896608"><g id="SvgjsG1057"><svg viewBox="0 0 395.52 247.2" height="247.2" width="395.52"><g><svg></svg></g><g><svg viewBox="0 0 395.52 247.2" height="247.2" width="395.52"><g><path d="M55.039 247.2l26.403-45.732 4.583 0-23.987 41.546h271.444l-23.987-41.546 4.583 0 26.403 45.732zM197.76 0l26.403 45.732-4.582 0-21.821-37.795-21.821 37.795-4.582 0z" fill="black" fill-rule="nonzero" stroke="none" stroke-width="1" stroke-linecap="butt" stroke-linejoin="miter" stroke-miterlimit="10" stroke-dasharray="" stroke-dashoffset="0" font-family="none" font-weight="none" font-size="none" text-anchor="none" style="mix-blend-mode: normal"></path></g><g transform="matrix(1,0,0,1,73.5275933395591,67.97999999999999)"><svg viewBox="0 0 248.46481332088177 111.24" height="111.24" width="248.46481332088177"><g><svg viewBox="0 0 395.52 177.07797016384328" height="111.24" width="248.46481332088177"><g transform="matrix(1,0,0,1,0,91.06499999081365)"><svg viewBox="0 0 395.52 86.01297017302963" height="86.01297017302963" width="395.52"><g id="SvgjsG1056"><svg viewBox="0 0 395.52 86.01297017302963" height="86.01297017302963" width="395.52" id="SvgjsSvg1055"><g><svg viewBox="0 0 395.52 86.01297017302963" height="86.01297017302963" width="395.52"><g transform="matrix(1,0,0,1,0,0)"><svg width="395.52" viewBox="0.8692399999999996 -21.68421 225.47326 49.033240000000006" height="86.01297017302963" data-palette-color="url(#ea6fb6f4-5de0-43a7-8f31-890afba353d9)"><path d="M5.2 14.688l-4.331-1.109 8.731-34.1 4.33 1.109zM28.007 19.52v0c-2.271-0.441-4.292-1.346-6.064-2.715-1.77-1.376-3.223-3.04-4.358-4.992-1.135-1.952-1.906-4.054-2.311-6.306-0.405-2.252-0.39-4.497 0.044-6.735v0c0.454-2.336 1.289-4.473 2.507-6.41 1.217-1.93 2.706-3.566 4.467-4.908 1.755-1.344 3.703-2.286 5.846-2.828 2.144-0.548 4.367-0.599 6.672-0.152v0c3.344 0.649 5.967 1.885 7.867 3.707 1.902 1.816 3.189 3.95 3.861 6.403v0l-3.811 1.685c-0.617-2.211-1.708-3.972-3.274-5.281-1.558-1.314-3.394-2.177-5.508-2.586v0c-1.747-0.339-3.407-0.274-4.978 0.195-1.578 0.468-3.002 1.244-4.272 2.328-1.27 1.085-2.33 2.383-3.18 3.895-0.852 1.519-1.448 3.155-1.789 4.91v0c-0.359 1.852-0.397 3.655-0.112 5.407 0.285 1.753 0.855 3.361 1.712 4.825 0.863 1.465 1.956 2.695 3.276 3.692 1.321 0.997 2.826 1.659 4.515 1.987v0c1.976 0.384 3.955 0.248 5.936-0.407 1.982-0.661 3.97-1.875 5.963-3.64v0l-0.879 4.525c-3.833 3.093-7.876 4.227-12.13 3.401zM38.568 21.316l2.702-13.921-7.441-1.444 0.642-3.308 11.142 2.162-3.344 17.229zM54.409 23.503l-4.44-0.518 4.086-34.963 14.968 1.75c1.543 0.18 2.919 0.667 4.128 1.459 1.204 0.785 2.22 1.77 3.048 2.954 0.829 1.178 1.427 2.462 1.795 3.854 0.368 1.385 0.472 2.77 0.31 4.154v0c-0.187 1.602-0.667 3.094-1.439 4.473-0.778 1.372-1.776 2.501-2.993 3.386-1.218 0.891-2.589 1.449-4.113 1.674v0l6.898 14.377-5.016-0.586-6.508-13.486-9.257-1.082zM58.034-7.516l-1.697 14.522 10.578 1.236c1.218 0.142 2.317-0.068 3.295-0.632 0.986-0.569 1.796-1.384 2.43-2.444 0.64-1.053 1.034-2.218 1.184-3.497v0c0.154-1.318 0.001-2.561-0.46-3.728-0.461-1.168-1.13-2.136-2.007-2.903-0.877-0.767-1.888-1.217-3.033-1.351v0zM79.685 26.165l15.691-34.653 3.768 0.137 13.09 35.7-4.757-0.173-3.792-10.455-14.76-0.537-4.493 10.153zM89.94 12.749l12.882 0.468-5.745-16.479zM122.27 27.06l-4.468 0.14-1.099-35.183 14.673-0.458c1.553-0.049 2.982 0.23 4.288 0.836 1.313 0.599 2.462 1.424 3.449 2.474 0.993 1.043 1.774 2.226 2.342 3.548 0.575 1.316 0.884 2.67 0.927 4.063v0c0.06 1.912-0.313 3.748-1.118 5.508-0.805 1.766-1.967 3.21-3.487 4.331-1.519 1.121-3.318 1.714-5.397 1.779v0l-10.505 0.328zM121.295-4.154l0.456 14.612 10.255-0.32c1.219-0.038 2.275-0.401 3.168-1.089 0.886-0.688 1.567-1.603 2.045-2.746 0.478-1.135 0.697-2.363 0.655-3.682v0c-0.044-1.393-0.382-2.633-1.016-3.72-0.628-1.088-1.431-1.93-2.41-2.526-0.972-0.597-2.038-0.877-3.198-0.841v0zM169.637-11.82l4.436-0.465 3.665 35.009-4.436 0.464-1.667-15.923-19.274 2.018 1.667 15.923-4.446 0.466-3.665-35.009 4.446-0.466 1.584 15.138 19.275-2.018zM191.169 20.457l-4.413 0.714-5.619-34.748 4.412-0.714zM188.533-14.867l4.939-1.103 13.522 11.92 7.178-16.542 4.889-1.092-8.934 20.284 16.216 14.157-4.88 1.09-13.043-11.515-6.896 15.967-4.929 1.101 8.653-19.71z" opacity="1" transform="matrix(1,0,0,1,0,0)" fill="white" class="wordmark-text-0" id="SvgjsPath1054"></path></svg></g></svg></g></svg></g></svg></g><g transform="matrix(1,0,0,1,172.8082193185449,0)"><svg viewBox="0 0 49.90356136291018 86.01297017302963" height="86.01297017302963" width="49.90356136291018"><g><svg xmlns="http://www.w3.org/2000/svg" xmlns:xlink="http://www.w3.org/1999/xlink" version="1.1" x="0" y="0" viewBox="21.679106830508623 1 56.85827385947761 98" enable-background="new 0 0 100 100" xml:space="preserve" height="86.01297017302963" width="49.90356136291018" class="icon-icon-0" data-fill-palette-color="accent" id="SvgjsSvg1053"><g fill="black"><path fill-rule="evenodd" clip-rule="evenodd" d="M30.545 28.822c-1.165 7.217 0.33 14.85 6.5 19.041C30.758 19.81 45.756 8.664 59.646 1c-16.18 23.046 16.896 23.644 18.777 50.13C80.028 73.71 64.507 91.317 46.639 99c0.206-22.825-22.55-25.933-24.838-44.603C20.905 47.094 25.062 33.766 30.545 28.822z" fill="black"></path></g></svg></g></svg></g><g></g></svg></g></svg></g></svg></g><defs><mask></mask></defs></svg><rect width="395.52" height="247.2" fill="black" stroke="none" visibility="hidden"></rect></g></mask><linearGradient x1="0.054" x2="0.941" y1="0.5" y2="0.5" id="ea6fb6f4-5de0-43a7-8f31-890afba353d9"><stop stop-color="#0f3054" offset="0"></stop><stop stop-color="#3b8dcb" offset="0.498"></stop><stop stop-color="#0f3054" offset="1"></stop></linearGradient><rect width="395.52" height="247.2" fill="#ffffff" mask="url(#372e8b9f-a24f-4654-992c-b3093f896608)" data-fill-palette-color="primary"></rect><mask id="9c38f28c-c2fb-45e2-85b7-fa9dd3df73af"><g id="SvgjsG1066"><svg viewBox="0 0 395.52 247.2" height="247.2" width="395.52"><g><svg></svg></g><g><svg viewBox="0 0 395.52 247.2" height="247.2" width="395.52"><g><path d="M55.039 247.2l26.403-45.732 4.583 0-23.987 41.546h271.444l-23.987-41.546 4.583 0 26.403 45.732zM197.76 0l26.403 45.732-4.582 0-21.821-37.795-21.821 37.795-4.582 0z" fill="black" fill-rule="nonzero" stroke="none" stroke-width="1" stroke-linecap="butt" stroke-linejoin="miter" stroke-miterlimit="10" stroke-dasharray="" stroke-dashoffset="0" font-family="none" font-weight="none" font-size="none" text-anchor="none" style="mix-blend-mode: normal"></path></g><g transform="matrix(1,0,0,1,73.5275933395591,67.97999999999999)"><svg viewBox="0 0 248.46481332088177 111.24" height="111.24" width="248.46481332088177"><g><svg viewBox="0 0 395.52 177.07797016384328" height="111.24" width="248.46481332088177"><g transform="matrix(1,0,0,1,0,91.06499999081365)"><svg viewBox="0 0 395.52 86.01297017302963" height="86.01297017302963" width="395.52"><g id="SvgjsG1065"><svg viewBox="0 0 395.52 86.01297017302963" height="86.01297017302963" width="395.52" id="SvgjsSvg1064"><g><svg viewBox="0 0 395.52 86.01297017302963" height="86.01297017302963" width="395.52"><g transform="matrix(1,0,0,1,0,0)"><svg width="395.52" viewBox="0.8692399999999996 -21.68421 225.47326 49.033240000000006" height="86.01297017302963" data-palette-color="url(#ea6fb6f4-5de0-43a7-8f31-890afba353d9)"></svg></g></svg></g></svg></g></svg></g><g transform="matrix(1,0,0,1,172.8082193185449,0)"><svg viewBox="0 0 49.90356136291018 86.01297017302963" height="86.01297017302963" width="49.90356136291018"><g><svg xmlns="http://www.w3.org/2000/svg" xmlns:xlink="http://www.w3.org/1999/xlink" version="1.1" x="0" y="0" viewBox="21.679106830508623 1 56.85827385947761 98" enable-background="new 0 0 100 100" xml:space="preserve" height="86.01297017302963" width="49.90356136291018" class="icon-icon-0" data-fill-palette-color="accent" id="SvgjsSvg1063"><g fill="white"><path fill-rule="evenodd" clip-rule="evenodd" d="M30.545 28.822c-1.165 7.217 0.33 14.85 6.5 19.041C30.758 19.81 45.756 8.664 59.646 1c-16.18 23.046 16.896 23.644 18.777 50.13C80.028 73.71 64.507 91.317 46.639 99c0.206-22.825-22.55-25.933-24.838-44.603C20.905 47.094 25.062 33.766 30.545 28.822z" fill="white"></path></g></svg></g></svg></g><g></g></svg></g></svg></g></svg></g><defs><mask></mask></defs><mask><g id="SvgjsG1062"><svg viewBox="0 0 395.52 247.2" height="247.2" width="395.52"><g><svg></svg></g><g><svg viewBox="0 0 395.52 247.2" height="247.2" width="395.52"><g><path d="M55.039 247.2l26.403-45.732 4.583 0-23.987 41.546h271.444l-23.987-41.546 4.583 0 26.403 45.732zM197.76 0l26.403 45.732-4.582 0-21.821-37.795-21.821 37.795-4.582 0z" fill="black" fill-rule="nonzero" stroke="none" stroke-width="1" stroke-linecap="butt" stroke-linejoin="miter" stroke-miterlimit="10" stroke-dasharray="" stroke-dashoffset="0" font-family="none" font-weight="none" font-size="none" text-anchor="none" style="mix-blend-mode: normal"></path></g><g transform="matrix(1,0,0,1,73.5275933395591,67.97999999999999)"><svg viewBox="0 0 248.46481332088177 111.24" height="111.24" width="248.46481332088177"><g><svg viewBox="0 0 395.52 177.07797016384328" height="111.24" width="248.46481332088177"><g transform="matrix(1,0,0,1,0,91.06499999081365)"><svg viewBox="0 0 395.52 86.01297017302963" height="86.01297017302963" width="395.52"><g id="SvgjsG1061"><svg viewBox="0 0 395.52 86.01297017302963" height="86.01297017302963" width="395.52" id="SvgjsSvg1060"><g><svg viewBox="0 0 395.52 86.01297017302963" height="86.01297017302963" width="395.52"><g transform="matrix(1,0,0,1,0,0)"><svg width="395.52" viewBox="0.8692399999999996 -21.68421 225.47326 49.033240000000006" height="86.01297017302963" data-palette-color="url(#ea6fb6f4-5de0-43a7-8f31-890afba353d9)"><path d="M5.2 14.688l-4.331-1.109 8.731-34.1 4.33 1.109zM28.007 19.52v0c-2.271-0.441-4.292-1.346-6.064-2.715-1.77-1.376-3.223-3.04-4.358-4.992-1.135-1.952-1.906-4.054-2.311-6.306-0.405-2.252-0.39-4.497 0.044-6.735v0c0.454-2.336 1.289-4.473 2.507-6.41 1.217-1.93 2.706-3.566 4.467-4.908 1.755-1.344 3.703-2.286 5.846-2.828 2.144-0.548 4.367-0.599 6.672-0.152v0c3.344 0.649 5.967 1.885 7.867 3.707 1.902 1.816 3.189 3.95 3.861 6.403v0l-3.811 1.685c-0.617-2.211-1.708-3.972-3.274-5.281-1.558-1.314-3.394-2.177-5.508-2.586v0c-1.747-0.339-3.407-0.274-4.978 0.195-1.578 0.468-3.002 1.244-4.272 2.328-1.27 1.085-2.33 2.383-3.18 3.895-0.852 1.519-1.448 3.155-1.789 4.91v0c-0.359 1.852-0.397 3.655-0.112 5.407 0.285 1.753 0.855 3.361 1.712 4.825 0.863 1.465 1.956 2.695 3.276 3.692 1.321 0.997 2.826 1.659 4.515 1.987v0c1.976 0.384 3.955 0.248 5.936-0.407 1.982-0.661 3.97-1.875 5.963-3.64v0l-0.879 4.525c-3.833 3.093-7.876 4.227-12.13 3.401zM38.568 21.316l2.702-13.921-7.441-1.444 0.642-3.308 11.142 2.162-3.344 17.229zM54.409 23.503l-4.44-0.518 4.086-34.963 14.968 1.75c1.543 0.18 2.919 0.667 4.128 1.459 1.204 0.785 2.22 1.77 3.048 2.954 0.829 1.178 1.427 2.462 1.795 3.854 0.368 1.385 0.472 2.77 0.31 4.154v0c-0.187 1.602-0.667 3.094-1.439 4.473-0.778 1.372-1.776 2.501-2.993 3.386-1.218 0.891-2.589 1.449-4.113 1.674v0l6.898 14.377-5.016-0.586-6.508-13.486-9.257-1.082zM58.034-7.516l-1.697 14.522 10.578 1.236c1.218 0.142 2.317-0.068 3.295-0.632 0.986-0.569 1.796-1.384 2.43-2.444 0.64-1.053 1.034-2.218 1.184-3.497v0c0.154-1.318 0.001-2.561-0.46-3.728-0.461-1.168-1.13-2.136-2.007-2.903-0.877-0.767-1.888-1.217-3.033-1.351v0zM79.685 26.165l15.691-34.653 3.768 0.137 13.09 35.7-4.757-0.173-3.792-10.455-14.76-0.537-4.493 10.153zM89.94 12.749l12.882 0.468-5.745-16.479zM122.27 27.06l-4.468 0.14-1.099-35.183 14.673-0.458c1.553-0.049 2.982 0.23 4.288 0.836 1.313 0.599 2.462 1.424 3.449 2.474 0.993 1.043 1.774 2.226 2.342 3.548 0.575 1.316 0.884 2.67 0.927 4.063v0c0.06 1.912-0.313 3.748-1.118 5.508-0.805 1.766-1.967 3.21-3.487 4.331-1.519 1.121-3.318 1.714-5.397 1.779v0l-10.505 0.328zM121.295-4.154l0.456 14.612 10.255-0.32c1.219-0.038 2.275-0.401 3.168-1.089 0.886-0.688 1.567-1.603 2.045-2.746 0.478-1.135 0.697-2.363 0.655-3.682v0c-0.044-1.393-0.382-2.633-1.016-3.72-0.628-1.088-1.431-1.93-2.41-2.526-0.972-0.597-2.038-0.877-3.198-0.841v0zM169.637-11.82l4.436-0.465 3.665 35.009-4.436 0.464-1.667-15.923-19.274 2.018 1.667 15.923-4.446 0.466-3.665-35.009 4.446-0.466 1.584 15.138 19.275-2.018zM191.169 20.457l-4.413 0.714-5.619-34.748 4.412-0.714zM188.533-14.867l4.939-1.103 13.522 11.92 7.178-16.542 4.889-1.092-8.934 20.284 16.216 14.157-4.88 1.09-13.043-11.515-6.896 15.967-4.929 1.101 8.653-19.71z" opacity="1" transform="matrix(1,0,0,1,0,0)" fill="black" class="wordmark-text-0" id="SvgjsPath1059"></path></svg></g></svg></g></svg></g></svg></g><g transform="matrix(1,0,0,1,172.8082193185449,0)"><svg viewBox="0 0 49.90356136291018 86.01297017302963" height="86.01297017302963" width="49.90356136291018"><g><svg xmlns="http://www.w3.org/2000/svg" xmlns:xlink="http://www.w3.org/1999/xlink" version="1.1" x="0" y="0" viewBox="21.679106830508623 1 56.85827385947761 98" enable-background="new 0 0 100 100" xml:space="preserve" height="86.01297017302963" width="49.90356136291018" class="icon-icon-0" data-fill-palette-color="accent" id="SvgjsSvg1058"><g fill="black"><path fill-rule="evenodd" clip-rule="evenodd" d="M30.545 28.822c-1.165 7.217 0.33 14.85 6.5 19.041C30.758 19.81 45.756 8.664 59.646 1c-16.18 23.046 16.896 23.644 18.777 50.13C80.028 73.71 64.507 91.317 46.639 99c0.206-22.825-22.55-25.933-24.838-44.603C20.905 47.094 25.062 33.766 30.545 28.822z" fill="black"></path></g></svg></g></svg></g><g></g></svg></g></svg></g></svg></g><defs><mask></mask></defs></svg><rect width="395.52" height="247.2" fill="black" stroke="none" visibility="hidden"></rect></g></mask></svg><rect width="395.52" height="247.2" fill="black" stroke="none" visibility="hidden"></rect></g></mask><linearGradient x1="0" x2="1" y1="0.578" y2="0.595" id="63ff9cf7-da7b-43e8-b416-98df44dc3f73"><stop stop-color="#6ee2f5" offset="0"></stop><stop stop-color="#6454f0" offset="1"></stop></linearGradient><rect width="395.52" height="247.2" fill="#ffffff" mask="url(#9c38f28c-c2fb-45e2-85b7-fa9dd3df73af)" data-fill-palette-color="accent"></rect></svg><rect width="395.52" height="247.2" fill="none" stroke="none" visibility="hidden"></rect></g></svg></g></svg>